# xmcd
#
# Track frame offsets:
#	150
#	21144
#	35851
#	59610
#	75468
#	89465
#	109880
#	125363
#	147554
#	162727
#	176737
#	200349
#	217573
#
# Disc length: 3162
#
# Revision: 1
# Processed by: cddbd v1.5.1PL0 Copyright (c) Steve Scherf et al.
# Submitted via: ExactAudioCopy v0.90b4
# Normalized: r0:DSETVAR1
#
DISCID=bb0c580d
DTITLE=Various Artist - Cow Hear This!
DYEAR=2002
DGENRE=Country
TTITLE0=Pat Green - Texas On My Mind
TTITLE1=Eleven Hundred Springs - See You In The Next Life
TTITLE2=Kevin Fowler - Beer, Bait and Ammo
TTITLE3=Reckless Kelly - Waitin' On The Blues
TTITLE4=Cooder Graw - Better Days
TTITLE5=Jack Ingram - Drive On
TTITLE6=Asleep At The Wheel - Ain't Nobody Here But Us Chickens
TTITLE7=Rodney Crowell - Highway 17
TTITLE8=Jason Boland and the Stragglers - Pearl Snap Shirts
TTITLE9=Cross Canadian Ragweed - Jimmy and Annie
TTITLE10=Bruce Robison - What Would Willie Do
TTITLE11=Roger Creager - Love
TTITLE12=Kevin Welch - Stray Dog
EXTD=
EXTT0=
EXTT1=
EXTT2=
EXTT3=
EXTT4=
EXTT5=
EXTT6=
EXTT7=
EXTT8=
EXTT9=
EXTT10=
EXTT11=
EXTT12=
PLAYORDER=
